<?xml version="1.0" encoding="UTF-8"?>
<svg xmlns="http://www.w3.org/2000/svg" xmlns:xlink="http://www.w3.org/1999/xlink" width="32px" height="32px" viewBox="0 0 32 32" version="1.1">
<g id="surface1">
<path style=" stroke:none;fill-rule:nonzero;fill:rgb(0%,32.54902%,49.803922%);fill-opacity:1;" d="M 0 6.425781 C 0 2.871094 2.851562 0.0195312 6.40625 0.0195312 L 25.59375 0.0195312 C 29.109375 0.0195312 32 2.871094 32 6.425781 L 32 25.613281 C 32 29.128906 29.148438 32.019531 25.59375 32.019531 L 6.40625 32.019531 C 2.851562 32.019531 0 29.128906 0 25.613281 L 0 6.425781 "/>
<path style=" stroke:none;fill-rule:nonzero;fill:rgb(100%,100%,100%);fill-opacity:1;" d="M 25.671875 16 C 25.671875 21.328125 21.347656 25.652344 16.019531 25.652344 C 10.691406 25.652344 6.367188 21.328125 6.367188 16 C 6.367188 10.671875 10.691406 6.347656 16.019531 6.347656 C 21.347656 6.347656 25.671875 10.671875 25.671875 16 Z M 25.671875 16 "/>
<path style=" stroke:none;fill-rule:nonzero;fill:rgb(0%,32.54902%,49.803922%);fill-opacity:1;" d="M 18.246094 22.210938 C 18.246094 21.027344 17.25 20.0625 16.019531 20.0625 C 14.789062 20.0625 13.792969 21.027344 13.792969 22.210938 C 13.792969 23.398438 14.789062 24.363281 16.019531 24.363281 C 17.25 24.363281 18.246094 23.398438 18.246094 22.210938 Z M 18.246094 22.210938 "/>
<path style=" stroke:none;fill-rule:nonzero;fill:rgb(0%,32.54902%,49.803922%);fill-opacity:1;" d="M 16.214844 23.070312 L 15.824219 23.578125 C 15.472656 23.578125 15.199219 22.796875 15.199219 22.445312 L 15.199219 8.65625 C 15.199219 8.304688 15.472656 8.03125 15.824219 8.03125 L 16.214844 8.03125 C 16.566406 8.03125 16.839844 8.304688 16.839844 8.65625 L 16.839844 22.445312 C 16.800781 22.796875 16.527344 23.070312 16.214844 23.070312 Z M 16.214844 23.070312 "/>
</g>
</svg>
